<svg width="531" height="417" viewBox="0 0 531 417" fill="none" xmlns="http://www.w3.org/2000/svg">
<mask id="path-1-inside-1_6722_81" fill="white">
<path d="M2 23C2 10.2974 12.2975 0 25 0H531V416H25C12.2974 416 2 405.703 2 393V23Z"/>
</mask>
<path d="M2 23C2 10.2974 12.2975 0 25 0H531V416H25C12.2974 416 2 405.703 2 393V23Z" fill="#F5FBFC"/>
<path d="M1 23C1 9.74517 11.7452 -1 25 -1H531V1H25C12.8497 1 3 10.8497 3 23H1ZM531 417H25C11.7452 417 1 406.255 1 393H3C3 405.15 12.8497 415 25 415H531V417ZM25 417C11.7452 417 1 406.255 1 393V23C1 9.74517 11.7452 -1 25 -1V1C12.8497 1 3 10.8497 3 23V393C3 405.15 12.8497 415 25 415V417ZM531 0V416V0Z" fill="#F1F1F1" mask="url(#path-1-inside-1_6722_81)"/>
<g opacity="0.6">
<mask id="mask0_6722_81" style="mask-type:alpha" maskUnits="userSpaceOnUse" x="0" y="1" width="528" height="416">
<path d="M0 25C0 11.7452 10.7452 1 24 1H528V417H24C10.7452 417 0 406.255 0 393V25Z" fill="#0E6296"/>
</mask>
<g mask="url(#mask0_6722_81)">
<path opacity="0.4" d="M1161.35 519.552L1134.52 473.072H1081.26L1054.6 426.945H1001.34L974.729 380.817H921.068L894.458 426.945H841.193L814.539 473.072H761.67L735.06 426.945H681.795L655.185 380.817H601.524L574.869 426.945H522.001L495.39 380.817H442.126L415.471 334.689H361.81L335.156 380.817H282.287L255.677 334.689H202.016L175.405 380.817H122.14L95.53 426.945H42.6617L16.0073 380.817H-37.654L-64.2644 426.945H-117.529L-144.14 473.072H-197.008L-223.662 426.945H-276.927L-303.581 380.817H-357.243L-383.853 426.945H-437.118L-463.728 473.072H-517.169L-544 519.552L-517.169 566.032H-463.905L-437.294 612.16H-383.633L-356.802 565.68L-383.457 519.552L-357.023 473.777H-304.154L-277.72 519.552L-304.33 565.68L-277.5 612.16H-223.839L-197.228 566.032H-144.36L-117.749 612.16H-64.4847L-37.8743 658.287H15.787L42.4414 612.16H95.7062L122.317 566.032H175.185L201.707 611.984L201.795 612.16H255.457L282.067 566.032H334.935L361.546 612.16H415.207L441.817 566.032H494.686L521.296 612.16H574.561L601.215 658.287H654.876L681.487 612.16H734.752L761.362 566.032H814.23L840.841 612.16H894.502L921.333 565.68L894.722 519.552L921.156 473.777H974.025L1000.46 519.552L973.804 565.68L1000.64 612.16H1054.3L1080.91 566.032H1134.17L1161 519.552H1161.35ZM1080.64 473.38L1054.21 519.2H1001.34L974.906 473.425L1001.34 427.605H1054.21L1080.64 473.38ZM921.421 381.478H974.289L1000.72 427.253L974.289 473.072H921.421L894.986 427.253L921.421 381.478ZM841.501 427.605H894.37L920.804 473.425L894.37 519.2H841.501L815.067 473.38L841.501 427.605ZM735.148 519.552L761.582 473.733H814.45L840.885 519.508L814.45 565.283H761.582L735.148 519.508V519.552ZM760.965 473.38L734.531 519.2H681.663L655.229 473.425L681.663 427.605H734.531L760.965 473.38ZM654.656 565.327H601.788L575.354 519.552L601.788 473.777H654.656L681.09 519.552L654.656 565.327ZM441.993 565.327L415.559 519.508L441.993 473.733H494.862L521.296 519.508L494.862 565.283H441.993V565.327ZM362.074 519.2L335.64 473.425L362.074 427.649H414.943L441.377 473.425L414.943 519.2H362.074ZM202.28 519.2L175.846 473.425L202.28 427.649H255.148L281.582 473.425L255.148 519.2H202.28ZM15.4786 565.327H-37.3897L-63.8238 519.552L-37.3897 473.777H15.4786L41.9128 519.552L15.4786 565.327ZM16.0513 473.425L42.4855 427.605H95.3097L121.744 473.425L95.3097 519.2H42.4414L16.0073 473.425H16.0513ZM95.9705 519.552L122.405 473.777H175.273L201.707 519.552L175.273 565.371H122.405L95.9705 519.596V519.552ZM361.502 427.297L335.067 473.072H282.199L255.765 427.297L282.199 381.522H335.067L361.502 427.297ZM255.765 519.552L282.199 473.777H335.067L361.502 519.552L335.067 565.371H282.199L255.765 519.552ZM521.913 519.2L495.479 473.425L521.913 427.605H574.737L601.171 473.425L574.737 519.2H521.869H521.913ZM601.788 381.478H654.656L681.09 427.253L654.656 473.072H601.788L575.354 427.253L601.788 381.478ZM521.296 427.253L494.862 473.072H441.993L415.559 427.297L441.993 381.522H494.862L521.296 427.297V427.253ZM362.074 335.35H414.943L441.377 381.125L414.943 426.945H362.074L335.64 381.169L362.074 335.394V335.35ZM202.28 335.35H255.148L281.582 381.125L255.148 426.945H202.28L175.846 381.125L202.28 335.35ZM122.361 381.478H175.229L201.663 427.297L175.229 473.072H122.361L95.9265 427.253L122.361 381.478ZM-37.4337 381.478H15.4346L41.8687 427.253L15.4346 473.072H-37.4337L-63.8679 427.253L-37.4337 381.478ZM-117.309 427.605H-64.4406L-38.0065 473.425L-64.4406 519.2H-117.309L-143.743 473.425L-117.309 427.649V427.605ZM-144.316 565.327H-197.184L-223.618 519.552L-197.184 473.733H-144.316L-117.882 519.552L-119.688 522.724L-144.316 565.371V565.327ZM-197.757 473.38L-224.191 519.156H-277.059L-303.493 473.38L-277.059 427.561H-224.191L-197.757 473.336V473.38ZM-356.978 381.478H-304.11L-277.676 427.253L-304.11 473.072H-356.978L-383.413 427.253L-356.978 381.478ZM-436.898 427.605H-384.029L-357.595 473.425L-384.029 519.2H-436.898L-463.332 473.425L-436.898 427.649V427.605ZM-543.207 519.596L-516.773 473.777H-463.905L-437.47 519.596L-463.905 565.371H-516.773L-543.207 519.596ZM-383.985 611.499H-436.854L-463.288 565.724L-436.854 519.949H-383.985L-357.551 565.724L-383.985 611.543V611.499ZM-224.191 611.499H-277.059L-303.493 565.68L-277.059 519.905H-224.191L-197.757 565.68L-224.191 611.455V611.499ZM-143.699 565.724L-118.498 522.063L-117.265 519.949H-64.3966L-37.9624 565.724L-64.3966 611.543H-117.265L-143.699 565.768V565.724ZM15.4786 657.626H-37.3897L-63.8238 611.851L-37.3897 566.032H15.4786L41.9128 611.851L15.4786 657.626ZM95.3978 611.499H42.5295L16.0954 565.68L42.5295 519.905H95.3978L121.832 565.724L95.3978 611.499ZM255.192 611.499H202.324L175.89 565.724L202.324 519.905H255.192L281.626 565.724L255.192 611.499ZM414.987 611.499H362.118L335.684 565.724L362.118 519.905H414.987L441.421 565.724L414.987 611.499ZM495.479 565.724L521.913 519.949H574.781L601.215 565.724L574.781 611.543H521.913L495.479 565.768V565.724ZM654.7 657.626H601.832L575.398 611.851L601.832 566.032H654.7L681.134 611.851L654.7 657.626ZM734.575 611.499H681.707L655.273 565.68L681.707 519.905H734.575L761.009 565.68L734.575 611.455V611.499ZM894.37 611.499H841.501L815.067 565.724L841.501 519.949H894.37L920.804 565.724L894.37 611.543V611.499ZM1054.16 611.499H1001.3L974.862 565.68L1001.3 519.905H1054.16L1080.6 565.68L1054.16 611.455V611.499ZM1081.22 565.371L1054.78 519.596L1081.22 473.821H1134.08L1160.52 519.64L1134.08 565.415H1081.22V565.371Z" fill="#84D8EA"/>
<path opacity="0.5" d="M-34.3966 467.961L-57.8789 427.296L-34.3966 386.676H12.524L36.0063 427.296L12.524 467.961H-34.3966Z" fill="#84D8EA"/>
<path opacity="0.5" d="M205.275 421.831L181.837 381.167L205.275 340.546H252.24L275.722 381.167L252.24 421.831H205.275Z" fill="#84D8EA"/>
<path opacity="0.8" d="M125.396 467.961L101.914 427.34L125.396 386.676H172.361L195.799 427.34L172.361 467.961H125.396Z" fill="#84D8EA"/>
<path opacity="0.3" d="M285.189 467.961L261.707 427.296L285.189 386.676H332.153L355.636 427.296L332.153 467.961H285.189Z" fill="#84D8EA"/>
<path opacity="0.4" d="M365.112 421.833L341.629 381.168L365.112 340.504H412.076L435.515 381.168L412.076 421.833H365.112Z" fill="#84D8EA"/>
<path opacity="0.8" d="M444.99 467.961L421.552 427.297L444.99 386.632H491.955L515.437 427.297L491.955 467.961H444.99Z" fill="#84D8EA"/>
<g opacity="0.25">
<path opacity="0.2" d="M365.776 286.226V269H351.413V286.226H334.187V300.589H351.413V317.815H365.776V300.589H383.002V286.226H365.776Z" fill="#84D8EA"/>
</g>
<path opacity="0.5" d="M478.628 346.437V333H467.437V346.437H454V357.628H467.437V371.065H478.628V357.628H492.065V346.437H478.628Z" fill="#84D8EA"/>
<path opacity="0.8" d="M532.176 386.28V402.846H545.966V386.28H562.532V372.447H545.966V355.881H532.176V372.447H515.567V386.28H532.176Z" fill="#84D8EA"/>
</g>
</g>
</svg>
