<svg width="40" height="40" viewBox="0 0 40 40" fill="none" xmlns="http://www.w3.org/2000/svg">
<path d="M1.76257 13.8594C1.68609 13.8594 1.61551 13.8476 1.54492 13.8182V35.9C1.54492 37.23 2.62729 38.3065 3.95082 38.3065H36.039C37.3743 38.3065 38.4566 37.23 38.4566 35.9V13.8182C38.3861 13.8476 38.3096 13.8594 38.2331 13.8594H1.76257ZM10.3931 34.5518C10.3931 34.9835 10.0437 35.333 9.61194 35.333H6.52018C6.08841 35.333 5.73901 34.9835 5.73901 34.5518V31.4594C5.73901 31.0282 6.08841 30.6782 6.52018 30.6782H9.61194C10.0437 30.6782 10.3931 31.0282 10.3931 31.4594V34.5518ZM10.3931 27.3594C10.3931 27.7912 10.0437 28.1406 9.61194 28.1406H6.52018C6.08841 28.1406 5.73901 27.7912 5.73901 27.3594V24.2671C5.73901 23.8359 6.08841 23.4865 6.52018 23.4865H9.61194C10.0437 23.4865 10.3931 23.8359 10.3931 24.2671V27.3594ZM10.3931 20.1671C10.3931 20.5988 10.0437 20.9483 9.61194 20.9483H6.52018C6.08841 20.9483 5.73901 20.5988 5.73901 20.1671V17.0747C5.73901 16.6436 6.08841 16.2935 6.52018 16.2935H9.61194C10.0437 16.2935 10.3931 16.6436 10.3931 17.0747V20.1671ZM19.3861 34.5518C19.3861 34.9835 19.0361 35.333 18.6049 35.333H15.5125C15.0808 35.333 14.7314 34.9835 14.7314 34.5518V31.4594C14.7314 31.0282 15.0808 30.6782 15.5125 30.6782H18.6049C19.0361 30.6782 19.3861 31.0282 19.3861 31.4594V34.5518ZM19.3867 27.3594C19.3867 27.7912 19.0367 28.1406 18.6055 28.1406H15.5132C15.0814 28.1406 14.732 27.7912 14.732 27.3594V24.2671C14.732 23.8359 15.0814 23.4865 15.5132 23.4865H18.6055C19.0367 23.4865 19.3867 23.8359 19.3867 24.2671V27.3594ZM19.3867 20.1671C19.3867 20.5988 19.0367 20.9483 18.6055 20.9483H15.5132C15.0814 20.9483 14.732 20.5988 14.732 20.1671V17.0747C14.732 16.6436 15.0814 16.2935 15.5132 16.2935H18.6055C19.0367 16.2935 19.3867 16.6436 19.3867 17.0747V20.1671ZM35.0291 27.7953H30.5114V32.313H26.8796V27.7953H22.362V24.1636H26.8796V19.6459H30.5114V24.1636H35.0291V27.7953Z" fill="url(#paint0_linear_6192_398)"/>
<path d="M36.0391 6.10034H34.1743V8.55331C34.1743 9.78859 33.1685 10.8004 31.9272 10.8004C30.6919 10.8004 29.6802 9.78859 29.6802 8.55331V6.10034H22.2449V8.55331C22.2449 9.78859 21.239 10.8004 19.9979 10.8004C18.7625 10.8004 17.7508 9.78859 17.7508 8.55331V6.10034H10.3155V8.55331C10.3155 9.78859 9.3096 10.8004 8.06843 10.8004C6.83315 10.8004 5.82133 9.78859 5.82133 8.55331V6.10034H3.95078C2.62725 6.10034 1.54492 7.18275 1.54492 8.51805V13.1945C1.54492 13.318 1.64491 13.418 1.76257 13.418H38.2332C38.3567 13.418 38.4567 13.318 38.4567 13.1945V8.51805C38.4567 7.18275 37.3743 6.10034 36.0391 6.10034Z" fill="url(#paint1_linear_6192_398)"/>
<path d="M8.07155 10.3581C9.07152 10.3581 9.8774 9.54641 9.8774 8.55233V3.49933C9.8774 2.99935 9.67742 2.55228 9.34797 2.22291C9.02449 1.89346 8.57153 1.69348 8.07155 1.69348C7.07739 1.69348 6.26562 2.50525 6.26562 3.49933V8.55233C6.26562 9.54641 7.07739 10.3581 8.07155 10.3581Z" fill="url(#paint2_linear_6192_398)"/>
<path d="M20.0012 10.3581C21.0012 10.3581 21.8071 9.54641 21.8071 8.55233V3.49933C21.8071 2.99935 21.6071 2.55228 21.2777 2.22291C20.9542 1.89346 20.5012 1.69348 20.0012 1.69348C19.0071 1.69348 18.1953 2.50525 18.1953 3.49933V8.55233C18.1953 9.54641 19.0071 10.3581 20.0012 10.3581Z" fill="url(#paint3_linear_6192_398)"/>
<path d="M31.9309 10.3581C32.9309 10.3581 33.7368 9.54641 33.7368 8.55233V3.49933C33.7368 2.99935 33.5361 2.55228 33.2073 2.22291C32.8839 1.89346 32.4309 1.69348 31.9309 1.69348C30.9368 1.69348 30.125 2.50525 30.125 3.49933V8.55233C30.125 9.54641 30.9368 10.3581 31.9309 10.3581Z" fill="url(#paint4_linear_6192_398)"/>
<defs>
<linearGradient id="paint0_linear_6192_398" x1="20.0008" y1="11.3694" x2="20.0008" y2="40.7553" gradientUnits="userSpaceOnUse">
<stop stop-color="#1D95D2"/>
<stop offset="1" stop-color="#47B43A"/>
</linearGradient>
<linearGradient id="paint1_linear_6192_398" x1="20.0008" y1="5.36858" x2="20.0008" y2="14.1498" gradientUnits="userSpaceOnUse">
<stop stop-color="#1D95D2"/>
<stop offset="1" stop-color="#47B43A"/>
</linearGradient>
<linearGradient id="paint2_linear_6192_398" x1="8.07151" y1="0.827016" x2="8.07151" y2="11.2246" gradientUnits="userSpaceOnUse">
<stop stop-color="#1D95D2"/>
<stop offset="1" stop-color="#47B43A"/>
</linearGradient>
<linearGradient id="paint3_linear_6192_398" x1="20.0012" y1="0.827016" x2="20.0012" y2="11.2246" gradientUnits="userSpaceOnUse">
<stop stop-color="#1D95D2"/>
<stop offset="1" stop-color="#47B43A"/>
</linearGradient>
<linearGradient id="paint4_linear_6192_398" x1="31.9309" y1="0.827016" x2="31.9309" y2="11.2246" gradientUnits="userSpaceOnUse">
<stop stop-color="#1D95D2"/>
<stop offset="1" stop-color="#47B43A"/>
</linearGradient>
</defs>
</svg>
