<svg width="40" height="40" viewBox="0 0 40 40" fill="none" xmlns="http://www.w3.org/2000/svg">
<path d="M16 35.496V28.8C16 26.234 17.99 24.216 20.934 23.064C19.0354 22.3578 17.0256 21.9976 15 22C11.22 22 7.728 23.234 4.906 25.32C5.78102 27.7946 7.25018 30.0166 9.1845 31.791C11.1188 33.5652 13.4591 34.8374 16 35.496ZM33.76 28.172C32.97 27.106 30.34 26 27 26C22.988 26 20 27.594 20 28.8V36C22.7756 36.0016 25.504 35.2806 27.9166 33.908C30.3292 32.5356 32.343 30.5588 33.76 28.172ZM15.1 19C16.2934 19 17.438 18.5258 18.282 17.682C19.1258 16.838 19.6 15.6935 19.6 14.5C19.6 13.3065 19.1258 12.1619 18.282 11.318C17.438 10.4741 16.2934 10 15.1 10C13.9065 10 12.7619 10.4741 11.918 11.318C11.0741 12.1619 10.6 13.3065 10.6 14.5C10.6 15.6935 11.0741 16.838 11.918 17.682C12.7619 18.5258 13.9065 19 15.1 19ZM27 21C28.0608 21 29.0782 20.5786 29.8284 19.8284C30.5786 19.0782 31 18.0608 31 17C31 15.9391 30.5786 14.9217 29.8284 14.1716C29.0782 13.4214 28.0608 13 27 13C25.9392 13 24.9218 13.4214 24.1716 14.1716C23.4214 14.9217 23 15.9391 23 17C23 18.0608 23.4214 19.0782 24.1716 19.8284C24.9218 20.5786 25.9392 21 27 21ZM20 40C8.954 40 0 31.046 0 20C0 8.954 8.954 0 20 0C31.046 0 40 8.954 40 20C40 31.046 31.046 40 20 40Z" fill="url(#paint0_linear_6192_418)"/>
<defs>
<linearGradient id="paint0_linear_6192_418" x1="20" y1="-4" x2="20" y2="44" gradientUnits="userSpaceOnUse">
<stop stop-color="#1D95D2"/>
<stop offset="1" stop-color="#47B43A"/>
</linearGradient>
</defs>
</svg>
