<svg width="39" height="40" viewBox="0 0 39 40" fill="none" xmlns="http://www.w3.org/2000/svg">
<path d="M36.9354 29.1038L25.3846 15.0662V3.07692H26.9231C27.7723 3.07692 28.4615 2.38769 28.4615 1.53846C28.4615 0.689231 27.7723 0 26.9231 0H11.5385C10.6892 0 10 0.689231 10 1.53846C10 2.38769 10.6892 3.07692 11.5385 3.07692H13.0769V5.38462H16.0715C16.8377 5.38462 17.5485 5.90846 17.6715 6.66462C17.8285 7.62846 17.0885 8.46154 16.1538 8.46154H13.0769V11.5385H16.0715C16.8377 11.5385 17.5485 12.0623 17.6715 12.8185C17.8285 13.7823 17.0885 14.6154 16.1538 14.6154H13.0769V15.0662L1.54 29.0877C0.481539 30.3738 -0.000768312 31.8523 9.18621e-07 33.2977C0.00230861 36.7446 2.72 40 6.69231 40H31.7892C35.7523 40 38.4546 36.7546 38.4615 33.3169C38.4646 31.8708 37.9946 30.3908 36.9354 29.1038ZM31.79 35.3846H6.69231C5.26077 35.3846 4.61615 34.1623 4.61539 33.2954C4.61539 32.8431 4.77923 32.4146 5.10385 32.0208L13.0769 22.3077H25.3846L33.3708 32.0354C33.6915 32.4254 33.8477 32.8415 33.8462 33.3069C33.8446 34.17 33.2054 35.3846 31.79 35.3846Z" fill="url(#paint0_linear_6192_417)"/>
<defs>
<linearGradient id="paint0_linear_6192_417" x1="19.2308" y1="-4" x2="19.2308" y2="44" gradientUnits="userSpaceOnUse">
<stop stop-color="#1D95D2"/>
<stop offset="1" stop-color="#47B43A"/>
</linearGradient>
</defs>
</svg>
