<svg width="40" height="40" viewBox="0 0 40 40" fill="none" xmlns="http://www.w3.org/2000/svg">
<path d="M19.9986 0C15.2095 0 11.3145 3.89667 11.3145 8.68667C11.3145 13.4783 15.2103 17.3758 19.9986 17.3758C24.787 17.3758 28.6836 13.4783 28.6836 8.68667C28.6836 3.89667 24.787 0 19.9986 0Z" fill="url(#paint0_linear_6192_384)"/>
<path d="M26.7099 19.8275C27.019 21.165 27.5074 23.5966 27.3449 25.0066C28.6224 26.1391 31.974 29.4775 31.2449 32.7716C31.2399 32.8108 30.8949 34.705 28.5449 35.5091C28.4557 35.54 28.364 35.555 28.2749 35.555C27.9282 35.555 27.6057 35.3366 27.4874 34.99C27.3374 34.5541 27.5707 34.08 28.0065 33.9316C29.4049 33.4533 29.6082 32.4616 29.6115 32.4525C30.1099 30.1933 27.6099 27.4508 26.2199 26.2316C24.5565 27.0391 21.4115 29.02 21.2899 31.2883C21.2849 31.3583 21.2332 32.3625 22.4357 33.1808C22.8165 33.44 22.9157 33.9591 22.6557 34.34C22.4949 34.5758 22.2324 34.705 21.9674 34.705C21.8049 34.705 21.6415 34.6575 21.4982 34.56C19.4424 33.1616 19.6199 31.2383 19.6274 31.1566C19.8165 27.6358 24.4182 25.2366 25.7024 24.6333C25.779 23.3833 25.2599 20.8016 24.8774 19.3433C24.8657 19.2975 24.874 19.2533 24.869 19.2075C23.6565 18.8775 22.3857 18.6858 21.0682 18.6858H18.929C17.454 18.6858 16.0307 18.9108 14.6882 19.3216C14.674 19.3808 14.6707 19.4425 14.6415 19.5C14.6232 19.5375 12.819 23.2825 11.9565 29.01C13.4057 29.41 14.479 30.7258 14.479 32.2991C14.479 34.1875 12.9424 35.7233 11.0549 35.7233C9.1657 35.7233 7.62904 34.1866 7.62904 32.2991C7.62904 30.68 8.7632 29.3258 10.2774 28.9725C10.8632 24.9375 11.8849 21.865 12.5382 20.1883C7.73154 22.5583 4.4082 27.4975 4.4082 33.2108V39.1666C4.4082 39.6275 4.7807 40 5.24154 40H34.7599C35.2207 40 35.5932 39.6158 35.5932 39.155V33.2108C35.5915 27.2025 31.9249 22.0341 26.7099 19.8275Z" fill="url(#paint1_linear_6192_384)"/>
<defs>
<linearGradient id="paint0_linear_6192_384" x1="19.999" y1="-1.73758" x2="19.999" y2="19.1134" gradientUnits="userSpaceOnUse">
<stop stop-color="#1D95D2"/>
<stop offset="1" stop-color="#47B43A"/>
</linearGradient>
<linearGradient id="paint1_linear_6192_384" x1="20.0007" y1="16.5544" x2="20.0007" y2="42.1314" gradientUnits="userSpaceOnUse">
<stop stop-color="#1D95D2"/>
<stop offset="1" stop-color="#47B43A"/>
</linearGradient>
</defs>
</svg>
