<svg width="35" height="40" viewBox="0 0 35 40" fill="none" xmlns="http://www.w3.org/2000/svg">
<path d="M32.5919 0H8.1475C7.32972 0 6.66602 0.663704 6.66602 1.48148V4.44444H25.1845C27.6356 4.44444 29.629 6.43778 29.629 8.88889V33.3333H32.5919C33.4097 33.3333 34.0734 32.6696 34.0734 31.8519V1.48148C34.0734 0.663704 33.4097 0 32.5919 0Z" fill="url(#paint0_linear_6192_419)"/>
<path d="M25.1852 7.40735H1.48148C0.663704 7.40735 0 8.07105 0 8.88883V38.5185C0 39.3362 0.663704 39.9999 1.48148 39.9999H25.1852C26.003 39.9999 26.6667 39.3362 26.6667 38.5185V8.88883C26.6667 8.07105 26.003 7.40735 25.1852 7.40735ZM16.2963 11.1111H22.2222C23.04 11.1111 23.7037 11.7748 23.7037 12.5925C23.7037 13.4103 23.04 14.074 22.2222 14.074H16.2963C15.4785 14.074 14.8148 13.4103 14.8148 12.5925C14.8148 11.7748 15.4785 11.1111 16.2963 11.1111ZM8.14815 12.5925C9.78444 12.5925 11.1111 13.9192 11.1111 15.5555C11.1111 17.1918 9.78444 18.5185 8.14815 18.5185C6.51185 18.5185 5.18519 17.1918 5.18519 15.5555C5.18519 13.9192 6.51185 12.5925 8.14815 12.5925ZM12.5867 25.9259H3.70963C3.26148 25.9259 2.9 25.5273 2.97259 25.0844C3.37407 22.6207 5.57111 20.7407 8.14815 20.7407C10.7252 20.7407 12.9222 22.6207 13.3237 25.0844C13.397 25.5273 13.0356 25.9259 12.5867 25.9259ZM14.8148 18.5185C14.8148 17.7007 15.4785 17.037 16.2963 17.037H22.2222C23.04 17.037 23.7037 17.7007 23.7037 18.5185C23.7037 19.3362 23.04 19.9999 22.2222 19.9999H16.2963C15.4785 19.9999 14.8148 19.3362 14.8148 18.5185ZM22.5289 32.1585L18.8252 35.8622C18.5578 36.1303 18.1874 36.2962 17.7778 36.2962C17.3681 36.2962 16.9978 36.1303 16.7304 35.8622L14.5081 33.6399C14.24 33.3718 14.0741 33.0014 14.0741 32.5925C14.0741 31.7748 14.7378 31.1111 15.5556 31.1111C15.9652 31.1111 16.3356 31.277 16.603 31.5451L17.7778 32.7199L20.4341 30.0636C20.7015 29.7955 21.0719 29.6296 21.4815 29.6296C22.2993 29.6296 22.963 30.2933 22.963 31.1111C22.963 31.5199 22.797 31.8903 22.5289 32.1585Z" fill="url(#paint1_linear_6192_419)"/>
<defs>
<linearGradient id="paint0_linear_6192_419" x1="20.3697" y1="-3.33333" x2="20.3697" y2="36.6667" gradientUnits="userSpaceOnUse">
<stop stop-color="#1D95D2"/>
<stop offset="1" stop-color="#47B43A"/>
</linearGradient>
<linearGradient id="paint1_linear_6192_419" x1="13.3333" y1="4.14809" x2="13.3333" y2="43.2592" gradientUnits="userSpaceOnUse">
<stop stop-color="#1D95D2"/>
<stop offset="1" stop-color="#47B43A"/>
</linearGradient>
</defs>
</svg>
