<svg width="40" height="40" viewBox="0 0 40 40" fill="none" xmlns="http://www.w3.org/2000/svg">
<path d="M28.4603 19.9998C24.6364 19.9998 21.5371 23.099 21.5371 26.9229C21.5371 28.9706 22.431 30.8053 23.8448 32.073V40L28.4603 37.6923L33.0757 40V32.073C34.4896 30.8053 35.3834 28.9706 35.3834 26.9229C35.3834 23.099 32.2842 19.9998 28.4603 19.9998ZM28.4603 30.7691C26.3356 30.7691 24.6141 29.0476 24.6141 26.9229C24.6141 24.7983 26.3356 23.0767 28.4603 23.0767C30.5849 23.0767 32.3065 24.7983 32.3065 26.9229C32.3065 29.0476 30.5849 30.7691 28.4603 30.7691Z" fill="url(#paint0_linear_6192_415)"/>
<path d="M28.4619 16.9228C31.5235 16.9228 34.2658 18.3097 36.102 20.4844C38.1782 18.1567 39.2267 15.2328 39.2313 12.3074C39.2359 9.15808 38.0305 6.00882 35.6259 3.60495C30.8196 -1.20126 23.0265 -1.20203 18.2203 3.60495L12.0117 9.81348L21.7395 19.5413C23.5172 17.9205 25.8727 16.9228 28.4619 16.9228ZM21.3826 4.92419C22.9872 3.71572 24.9034 3.07648 26.9234 3.07648C27.7727 3.07648 28.4619 3.76572 28.4619 4.61495C28.4619 5.46419 27.7727 6.15343 26.9234 6.15343C25.5765 6.15343 24.3011 6.57882 23.2334 7.38268C22.9757 7.5773 22.6549 7.69191 22.308 7.69191C21.4588 7.69191 20.7695 7.00267 20.7695 6.15343C20.7695 5.65189 21.0103 5.20573 21.3826 4.92419Z" fill="url(#paint1_linear_6192_415)"/>
<path d="M20.7695 33.3006C19.2895 31.5167 18.4618 29.2605 18.4618 26.9228C18.4618 25.1236 18.9456 23.4389 19.781 21.9789L9.81396 12.0111L3.60466 18.2196C-1.20155 23.0259 -1.20155 30.819 3.60466 35.6252C6.00853 38.0299 9.15857 39.2345 12.3078 39.2307C15.3533 39.2268 18.3987 38.093 20.7695 35.8445V33.3006Z" fill="url(#paint2_linear_6192_415)"/>
<defs>
<linearGradient id="paint0_linear_6192_415" x1="28.4603" y1="17.9997" x2="28.4603" y2="42" gradientUnits="userSpaceOnUse">
<stop stop-color="#1D95D2"/>
<stop offset="1" stop-color="#47B43A"/>
</linearGradient>
<linearGradient id="paint1_linear_6192_415" x1="25.6215" y1="-2.04844" x2="25.6215" y2="22.5328" gradientUnits="userSpaceOnUse">
<stop stop-color="#1D95D2"/>
<stop offset="1" stop-color="#47B43A"/>
</linearGradient>
<linearGradient id="paint2_linear_6192_415" x1="10.3847" y1="9.28915" x2="10.3847" y2="41.9526" gradientUnits="userSpaceOnUse">
<stop stop-color="#1D95D2"/>
<stop offset="1" stop-color="#47B43A"/>
</linearGradient>
</defs>
</svg>
