<svg width="37" height="40" viewBox="0 0 37 40" fill="none" xmlns="http://www.w3.org/2000/svg">
<path d="M18.3333 0C8.22499 0 0 8.22499 0 18.3333C0 23.6583 2.29166 28.65 6.23333 32.1L8.49999 26.0416C6.78333 23.8666 5.83333 21.175 5.83333 18.3333C5.83333 11.4417 11.4417 5.83333 18.3333 5.83333C25.225 5.83333 30.8333 11.4417 30.8333 18.3333C30.8333 21.175 29.8833 23.8666 28.1666 26.0416L30.4333 32.0916C34.375 28.65 36.6666 23.6583 36.6666 18.3333C36.6666 8.22499 28.4416 0 18.3333 0Z" fill="url(#paint0_linear_6192_416)"/>
<path d="M24.1663 21.6667H12.4997C12.1497 21.6667 11.8413 21.8834 11.7163 22.2084L6.92383 35.0001H29.743L24.9496 22.2084C24.8246 21.8834 24.5163 21.6667 24.1663 21.6667Z" fill="url(#paint1_linear_6192_416)"/>
<path d="M6.66406 39.1666C6.66406 39.625 7.03906 40 7.49739 40H29.164C29.6224 40 29.9974 39.625 29.9974 39.1666V36.6666H6.66406V39.1666Z" fill="url(#paint2_linear_6192_416)"/>
<defs>
<linearGradient id="paint0_linear_6192_416" x1="18.3333" y1="-3.21" x2="18.3333" y2="35.31" gradientUnits="userSpaceOnUse">
<stop stop-color="#1D95D2"/>
<stop offset="1" stop-color="#47B43A"/>
</linearGradient>
<linearGradient id="paint1_linear_6192_416" x1="18.3334" y1="20.3334" x2="18.3334" y2="36.3334" gradientUnits="userSpaceOnUse">
<stop stop-color="#1D95D2"/>
<stop offset="1" stop-color="#47B43A"/>
</linearGradient>
<linearGradient id="paint2_linear_6192_416" x1="18.3307" y1="36.3333" x2="18.3307" y2="40.3333" gradientUnits="userSpaceOnUse">
<stop stop-color="#1D95D2"/>
<stop offset="1" stop-color="#47B43A"/>
</linearGradient>
</defs>
</svg>
