<svg width="69" height="50" viewBox="0 0 69 50" fill="none" xmlns="http://www.w3.org/2000/svg">
<path d="M6.09785 16.3723C6.4117 16.6446 6.73568 16.9255 7.06894 17.2168C7.0712 17.2188 7.07353 17.2208 7.07585 17.2228L8.1845 18.1692C8.33304 18.296 8.51739 18.3594 8.70174 18.3594C8.8861 18.3594 9.0705 18.2959 9.21904 18.1692L10.3275 17.2228C10.3298 17.2208 10.3321 17.2189 10.3343 17.2169C12.529 15.2989 14.1745 13.8305 15.3649 12.3984C16.7554 10.7257 17.403 9.21341 17.403 7.639C17.403 4.79053 15.1451 2.55928 12.2628 2.55928C10.9673 2.55928 9.68728 3.04134 8.70174 3.87697C7.71594 3.04128 6.43591 2.55928 5.14037 2.55928C2.25792 2.55922 0 4.79053 0 7.63895C0 11.0821 2.42587 13.1867 6.09785 16.3723ZM5.53661 8.8956H7.64647V6.81051H9.75643V8.8956H11.8663V10.9806H9.75643V13.0656H7.64647V10.9806H5.53661V8.8956Z" fill="url(#paint0_linear_6193_58)"/>
<path d="M9.70119 21.2378L10.6171 20.4477C10.621 20.4444 10.6248 20.441 10.6286 20.4376C14.296 17.1992 17.0457 14.72 19.035 12.302C19.5828 11.6362 20.0616 10.9855 20.4735 10.3448H25.1346V17.2413C25.1346 18.1936 25.9066 18.9655 26.8588 18.9655C27.811 18.9655 28.583 18.1936 28.583 17.2413V10.3448H49.2726V17.2413C49.2726 18.1936 50.0445 18.9655 50.9968 18.9655C51.949 18.9655 52.7209 18.1936 52.7209 17.2413V10.3448H63.0658C65.9224 10.3448 68.2381 12.6606 68.2381 15.5172V21.2081C59.5249 24.3085 49.757 25.862 38.9278 25.862C28.1332 25.862 18.3932 24.3184 9.70119 21.2378Z" fill="url(#paint1_linear_6193_58)"/>
<path d="M49.2726 10.3448L49.2725 6.89653C49.2725 4.99204 47.7287 3.44819 45.8242 3.44819H32.0313C30.1269 3.44819 28.583 4.99204 28.583 6.89653V10.3448H25.1346V6.89653C25.1346 3.08766 28.2223 0 32.0312 0H45.8243C49.6332 0 52.7208 3.08766 52.7208 6.89653L52.7209 10.3448H49.2726Z" fill="url(#paint2_linear_6193_58)"/>
<path fill-rule="evenodd" clip-rule="evenodd" d="M63.0658 50C65.9224 50 68.2381 47.6842 68.2381 44.8276V24.8577C59.4365 27.8282 49.6645 29.3104 38.9278 29.3104C28.191 29.3104 18.419 27.8281 9.61745 24.8577V44.8276C9.61745 47.6842 11.9332 50 14.7898 50H63.0658ZM44.9623 36.2068C44.9623 37.1591 44.1904 37.931 43.2381 37.931H34.6175C33.6652 37.931 32.8933 37.1591 32.8933 36.2068C32.8933 35.2546 33.6652 34.4827 34.6175 34.4827H43.2381C44.1904 34.4827 44.9623 35.2546 44.9623 36.2068Z" fill="url(#paint3_linear_6193_58)"/>
<defs>
<linearGradient id="paint0_linear_6193_58" x1="34.1191" y1="-5" x2="34.1191" y2="55" gradientUnits="userSpaceOnUse">
<stop stop-color="#BFE3F8"/>
<stop offset="1" stop-color="#45B4EB"/>
</linearGradient>
<linearGradient id="paint1_linear_6193_58" x1="34.1191" y1="-5" x2="34.1191" y2="55" gradientUnits="userSpaceOnUse">
<stop stop-color="#BFE3F8"/>
<stop offset="1" stop-color="#45B4EB"/>
</linearGradient>
<linearGradient id="paint2_linear_6193_58" x1="34.1191" y1="-5" x2="34.1191" y2="55" gradientUnits="userSpaceOnUse">
<stop stop-color="#BFE3F8"/>
<stop offset="1" stop-color="#45B4EB"/>
</linearGradient>
<linearGradient id="paint3_linear_6193_58" x1="34.1191" y1="-5" x2="34.1191" y2="55" gradientUnits="userSpaceOnUse">
<stop stop-color="#BFE3F8"/>
<stop offset="1" stop-color="#45B4EB"/>
</linearGradient>
</defs>
</svg>
