<svg width="50" height="50" viewBox="0 0 50 50" fill="none" xmlns="http://www.w3.org/2000/svg">
<g clip-path="url(#clip0_6192_485)">
<path d="M37.2754 13.0273C40.8728 13.0273 43.7891 10.1111 43.7891 6.51367C43.7891 2.91627 40.8728 0 37.2754 0C33.678 0 30.7617 2.91627 30.7617 6.51367C30.7617 10.1111 33.678 13.0273 37.2754 13.0273Z" fill="url(#paint0_linear_6192_485)"/>
<path d="M34.3265 37.8223L31.5824 27.0605C31.0941 25.1465 29.3656 23.7988 27.3831 23.7988H22.6175C20.6351 23.7988 18.9066 25.1465 18.4183 27.0605L15.6742 37.8223C15.264 39.4238 16.4749 40.9766 18.1253 40.9766H20.1859V47.832C20.1859 49.0234 21.1527 50 22.3538 50H27.6566C28.848 50 29.8245 49.0332 29.8245 47.832V40.9766H31.8851C33.5257 40.9766 34.7367 39.4238 34.3265 37.8223Z" fill="url(#paint1_linear_6192_485)"/>
<path d="M25 22.666C27.6589 22.666 29.8145 20.5105 29.8145 17.8516C29.8145 15.1926 27.6589 13.0371 25 13.0371C22.3411 13.0371 20.1855 15.1926 20.1855 17.8516C20.1855 20.5105 22.3411 22.666 25 22.666Z" fill="url(#paint2_linear_6192_485)"/>
<path d="M49.8926 33.5352L46.1816 18.9746C45.5176 16.377 43.1836 14.5605 40.5078 14.5605H34.0625C33.0566 14.5605 32.1094 14.8145 31.2695 15.2734C31.6016 16.0645 31.7773 16.9336 31.7773 17.8516C31.7773 19.6094 31.1035 21.2109 30 22.4219C31.6895 23.1934 32.998 24.6973 33.4766 26.582L35.6055 34.9316L36.2207 37.3437C36.2598 37.4902 36.2891 37.6465 36.3086 37.793C36.4941 39.0039 36.1719 40.2148 35.4102 41.1914C34.5605 42.2949 33.2617 42.9199 31.875 42.9199H31.7676V47.8223C31.7676 48.2617 31.6992 48.6816 31.5723 49.082C32.0996 49.6387 32.8613 49.9902 33.6914 49.9902H40.8691C42.4902 49.9902 43.7988 48.6816 43.7988 47.0605V37.7832H46.582C48.8086 37.793 50.4395 35.6934 49.8926 33.5352Z" fill="url(#paint3_linear_6192_485)"/>
<path d="M13.7802 37.3437L14.3954 34.9316L16.5243 26.582C17.0029 24.6875 18.3114 23.1934 20.0009 22.4219C18.8974 21.2207 18.2236 19.6094 18.2236 17.8516C18.2236 16.9434 18.3993 16.0742 18.7314 15.2734C17.8915 14.8145 16.9443 14.5605 15.9384 14.5605H9.49308C6.8173 14.5605 4.47355 16.377 3.81926 18.9746L0.10832 33.5352C-0.438555 35.6934 1.1923 37.793 3.41887 37.793H6.20207V47.0703C6.20207 48.6914 7.51066 50 9.13176 50H16.3095C17.1396 50 17.8915 49.6484 18.4286 49.0918C18.3017 48.6914 18.2333 48.2715 18.2333 47.832V42.9297H18.1259C16.7294 42.9297 15.4404 42.2949 14.5907 41.2012C13.829 40.2246 13.5165 39.0039 13.6923 37.8027C13.7118 37.6465 13.7411 37.4902 13.7802 37.3437Z" fill="url(#paint4_linear_6192_485)"/>
<path d="M19.2337 6.52673C19.2409 2.92932 16.3305 0.00722166 12.7331 2.68561e-05C9.13568 -0.00716795 6.21358 2.90327 6.20639 6.50067C6.19919 10.0981 9.10963 13.0202 12.707 13.0274C16.3044 13.0346 19.2265 10.1241 19.2337 6.52673Z" fill="url(#paint5_linear_6192_485)"/>
</g>
<defs>
<linearGradient id="paint0_linear_6192_485" x1="37.2754" y1="-1.30273" x2="37.2754" y2="14.3301" gradientUnits="userSpaceOnUse">
<stop stop-color="#FFABE8"/>
<stop offset="1" stop-color="#B6248D"/>
</linearGradient>
<linearGradient id="paint1_linear_6192_485" x1="25.0003" y1="21.1787" x2="25.0003" y2="52.6201" gradientUnits="userSpaceOnUse">
<stop stop-color="#FFABE8"/>
<stop offset="1" stop-color="#B6248D"/>
</linearGradient>
<linearGradient id="paint2_linear_6192_485" x1="25" y1="12.0742" x2="25" y2="23.6289" gradientUnits="userSpaceOnUse">
<stop stop-color="#FFABE8"/>
<stop offset="1" stop-color="#B6248D"/>
</linearGradient>
<linearGradient id="paint3_linear_6192_485" x1="39.9995" y1="11.0176" x2="39.9995" y2="53.5332" gradientUnits="userSpaceOnUse">
<stop stop-color="#FFABE8"/>
<stop offset="1" stop-color="#B6248D"/>
</linearGradient>
<linearGradient id="paint4_linear_6192_485" x1="10.0014" y1="11.0166" x2="10.0014" y2="53.5439" gradientUnits="userSpaceOnUse">
<stop stop-color="#FFABE8"/>
<stop offset="1" stop-color="#B6248D"/>
</linearGradient>
<linearGradient id="paint5_linear_6192_485" x1="4.90365" y1="6.49807" x2="20.5365" y2="6.52933" gradientUnits="userSpaceOnUse">
<stop stop-color="#FFABE8"/>
<stop offset="1" stop-color="#B6248D"/>
</linearGradient>
<clipPath id="clip0_6192_485">
<rect width="50" height="50" fill="white"/>
</clipPath>
</defs>
</svg>
