<svg width="52" height="52" viewBox="0 0 52 52" fill="none" xmlns="http://www.w3.org/2000/svg">
<path d="M25.9988 13.8667C28.8707 13.8667 31.1988 11.5385 31.1988 8.66668C31.1988 5.79479 28.8707 3.46667 25.9988 3.46667C23.127 3.46667 20.7988 5.79479 20.7988 8.66668C20.7988 11.5385 23.127 13.8667 25.9988 13.8667Z" fill="url(#paint0_linear_6192_459)"/>
<path d="M9.13549 19.6967L13.539 24.9591C13.7609 25.1827 13.8658 25.4549 13.8658 25.7244C13.8658 26.299 13.4255 26.8667 12.7452 26.8667H9.53242V36.4C9.53242 37.3568 8.75589 38.1333 7.79909 38.1333C6.84229 38.1333 6.06576 37.3568 6.06576 36.4V26.8667H2.85822C2.17702 26.8667 1.73242 26.3068 1.73242 25.7244C1.73242 25.4523 1.83729 25.1749 2.06436 24.9487L6.46182 19.695C6.81022 19.2799 7.30509 19.0667 7.79909 19.0667C8.29309 19.0667 8.78796 19.2798 9.13549 19.6967Z" fill="url(#paint1_linear_6192_459)"/>
<path d="M44.1995 38.1333C43.7055 38.1333 43.2106 37.9201 42.8622 37.5041L38.4647 32.2504C38.2377 32.0251 38.1328 31.7486 38.1328 31.4756C38.1328 30.8941 38.5774 30.3333 39.2586 30.3333H42.4661V20.8C42.4661 19.8432 43.2427 19.0667 44.1995 19.0667C45.1563 19.0667 45.9328 19.8432 45.9328 20.8V30.3333H49.1455C49.8259 30.3333 50.2661 30.901 50.2661 31.4756C50.2661 31.7451 50.1613 32.0173 49.9394 32.2409L45.5359 37.5033C45.1883 37.9201 44.6935 38.1333 44.1995 38.1333Z" fill="url(#paint2_linear_6192_459)"/>
<path d="M37.0896 45.8579L32.0656 30.3385V23.2275L41.91 12.2824C42.3113 11.8352 42.5314 11.2199 42.4482 10.556C42.333 9.63301 41.5954 8.85474 40.6776 8.69874C39.889 8.56527 39.161 8.85821 38.6869 9.38428L33.8613 14.7463C32.8759 15.8409 31.4702 16.4667 29.9968 16.4667H22.0001C20.5268 16.4667 19.1219 15.8409 18.1356 14.7463L13.31 9.38428C12.836 8.85821 12.108 8.56527 11.3193 8.69874C10.4015 8.85474 9.66396 9.63214 9.54869 10.556C9.46549 11.2207 9.68563 11.8361 10.0869 12.2824L19.9322 23.2275V30.3385C18.1989 34.7975 14.9082 45.8579 14.9082 45.8579C14.7998 46.2159 14.7322 46.4672 14.7322 46.8C14.7322 46.9482 14.7444 47.099 14.7704 47.2515C14.9428 48.2785 15.7601 49.1322 16.7793 49.3428C18.1122 49.6167 19.3178 48.8705 19.7563 47.7412L24.8636 34.5817C25.2666 33.5452 26.7321 33.5452 27.1351 34.5817L32.2424 47.7412C32.6809 48.8705 33.8856 49.6167 35.2194 49.3428C36.2394 49.1322 37.0558 48.2777 37.2283 47.2515C37.2526 47.099 37.2656 46.9482 37.2656 46.8C37.2656 46.4672 37.2049 46.2046 37.0896 45.8579Z" fill="url(#paint3_linear_6192_459)"/>
<defs>
<linearGradient id="paint0_linear_6192_459" x1="25.9988" y1="2.42667" x2="25.9988" y2="14.9067" gradientUnits="userSpaceOnUse">
<stop stop-color="#1D95D2"/>
<stop offset="1" stop-color="#47B43A"/>
</linearGradient>
<linearGradient id="paint1_linear_6192_459" x1="7.79909" y1="17.16" x2="7.79909" y2="40.04" gradientUnits="userSpaceOnUse">
<stop stop-color="#1D95D2"/>
<stop offset="1" stop-color="#47B43A"/>
</linearGradient>
<linearGradient id="paint2_linear_6192_459" x1="44.1995" y1="17.16" x2="44.1995" y2="40.04" gradientUnits="userSpaceOnUse">
<stop stop-color="#1D95D2"/>
<stop offset="1" stop-color="#47B43A"/>
</linearGradient>
<linearGradient id="paint3_linear_6192_459" x1="25.9985" y1="4.59333" x2="25.9985" y2="53.4729" gradientUnits="userSpaceOnUse">
<stop stop-color="#1D95D2"/>
<stop offset="1" stop-color="#47B43A"/>
</linearGradient>
</defs>
</svg>
