<svg width="40" height="40" viewBox="0 0 40 40" fill="none" xmlns="http://www.w3.org/2000/svg">
<path d="M1.76257 13.8593C1.68609 13.8593 1.61551 13.8475 1.54492 13.8181V35.8999C1.54492 37.2299 2.62729 38.3064 3.95082 38.3064H36.039C37.3743 38.3064 38.4566 37.2299 38.4566 35.8999V13.8181C38.3861 13.8475 38.3096 13.8593 38.2331 13.8593H1.76257ZM10.3931 34.5517C10.3931 34.9834 10.0437 35.3328 9.61194 35.3328H6.52018C6.08841 35.3328 5.73901 34.9834 5.73901 34.5517V31.4593C5.73901 31.0281 6.08841 30.6781 6.52018 30.6781H9.61194C10.0437 30.6781 10.3931 31.0281 10.3931 31.4593V34.5517ZM10.3931 27.3593C10.3931 27.7911 10.0437 28.1405 9.61194 28.1405H6.52018C6.08841 28.1405 5.73901 27.7911 5.73901 27.3593V24.2669C5.73901 23.8358 6.08841 23.4864 6.52018 23.4864H9.61194C10.0437 23.4864 10.3931 23.8358 10.3931 24.2669V27.3593ZM10.3931 20.167C10.3931 20.5987 10.0437 20.9481 9.61194 20.9481H6.52018C6.08841 20.9481 5.73901 20.5987 5.73901 20.167V17.0746C5.73901 16.6434 6.08841 16.2934 6.52018 16.2934H9.61194C10.0437 16.2934 10.3931 16.6434 10.3931 17.0746V20.167ZM19.3861 34.5517C19.3861 34.9834 19.0361 35.3328 18.6049 35.3328H15.5125C15.0808 35.3328 14.7314 34.9834 14.7314 34.5517V31.4593C14.7314 31.0281 15.0808 30.6781 15.5125 30.6781H18.6049C19.0361 30.6781 19.3861 31.0281 19.3861 31.4593V34.5517ZM19.3867 27.3593C19.3867 27.7911 19.0367 28.1405 18.6055 28.1405H15.5132C15.0814 28.1405 14.732 27.7911 14.732 27.3593V24.2669C14.732 23.8358 15.0814 23.4864 15.5132 23.4864H18.6055C19.0367 23.4864 19.3867 23.8358 19.3867 24.2669V27.3593ZM19.3867 20.167C19.3867 20.5987 19.0367 20.9481 18.6055 20.9481H15.5132C15.0814 20.9481 14.732 20.5987 14.732 20.167V17.0746C14.732 16.6434 15.0814 16.2934 15.5132 16.2934H18.6055C19.0367 16.2934 19.3867 16.6434 19.3867 17.0746V20.167ZM35.0291 27.7952H30.5114V32.3128H26.8796V27.7952H22.362V24.1634H26.8796V19.6458H30.5114V24.1634H35.0291V27.7952Z" fill="url(#paint0_linear_6218_325)"/>
<path d="M36.0391 6.1001H34.1743V8.55306C34.1743 9.78834 33.1685 10.8001 31.9272 10.8001C30.6919 10.8001 29.6802 9.78834 29.6802 8.55306V6.1001H22.2449V8.55306C22.2449 9.78834 21.239 10.8001 19.9979 10.8001C18.7625 10.8001 17.7508 9.78834 17.7508 8.55306V6.1001H10.3155V8.55306C10.3155 9.78834 9.3096 10.8001 8.06843 10.8001C6.83315 10.8001 5.82133 9.78834 5.82133 8.55306V6.1001H3.95078C2.62725 6.1001 1.54492 7.1825 1.54492 8.51781V13.1942C1.54492 13.3178 1.64491 13.4177 1.76257 13.4177H38.2332C38.3567 13.4177 38.4567 13.3178 38.4567 13.1942V8.51781C38.4567 7.1825 37.3743 6.1001 36.0391 6.1001Z" fill="url(#paint1_linear_6218_325)"/>
<path d="M8.07155 10.358C9.07152 10.358 9.8774 9.54629 9.8774 8.5522V3.49921C9.8774 2.99922 9.67742 2.55216 9.34797 2.22279C9.02449 1.89334 8.57153 1.69336 8.07155 1.69336C7.07739 1.69336 6.26562 2.50513 6.26562 3.49921V8.5522C6.26562 9.54629 7.07739 10.358 8.07155 10.358Z" fill="url(#paint2_linear_6218_325)"/>
<path d="M20.0012 10.358C21.0012 10.358 21.8071 9.54629 21.8071 8.5522V3.49921C21.8071 2.99922 21.6071 2.55216 21.2777 2.22279C20.9542 1.89334 20.5012 1.69336 20.0012 1.69336C19.0071 1.69336 18.1953 2.50513 18.1953 3.49921V8.5522C18.1953 9.54629 19.0071 10.358 20.0012 10.358Z" fill="url(#paint3_linear_6218_325)"/>
<path d="M31.9309 10.358C32.9309 10.358 33.7368 9.54629 33.7368 8.5522V3.49921C33.7368 2.99922 33.5361 2.55216 33.2073 2.22279C32.8839 1.89334 32.4309 1.69336 31.9309 1.69336C30.9368 1.69336 30.125 2.50513 30.125 3.49921V8.5522C30.125 9.54629 30.9368 10.358 31.9309 10.358Z" fill="url(#paint4_linear_6218_325)"/>
<defs>
<linearGradient id="paint0_linear_6218_325" x1="20.0008" y1="11.3693" x2="20.0008" y2="40.7552" gradientUnits="userSpaceOnUse">
<stop stop-color="#1D95D2"/>
<stop offset="1" stop-color="#47B43A"/>
</linearGradient>
<linearGradient id="paint1_linear_6218_325" x1="20.0008" y1="5.36833" x2="20.0008" y2="14.1495" gradientUnits="userSpaceOnUse">
<stop stop-color="#1D95D2"/>
<stop offset="1" stop-color="#47B43A"/>
</linearGradient>
<linearGradient id="paint2_linear_6218_325" x1="8.07151" y1="0.826893" x2="8.07151" y2="11.2245" gradientUnits="userSpaceOnUse">
<stop stop-color="#1D95D2"/>
<stop offset="1" stop-color="#47B43A"/>
</linearGradient>
<linearGradient id="paint3_linear_6218_325" x1="20.0012" y1="0.826893" x2="20.0012" y2="11.2245" gradientUnits="userSpaceOnUse">
<stop stop-color="#1D95D2"/>
<stop offset="1" stop-color="#47B43A"/>
</linearGradient>
<linearGradient id="paint4_linear_6218_325" x1="31.9309" y1="0.826893" x2="31.9309" y2="11.2245" gradientUnits="userSpaceOnUse">
<stop stop-color="#1D95D2"/>
<stop offset="1" stop-color="#47B43A"/>
</linearGradient>
</defs>
</svg>
