<svg width="40" height="40" viewBox="0 0 40 40" fill="none" xmlns="http://www.w3.org/2000/svg">
<path d="M25.3906 8.98437C25.3906 9.19976 25.5659 9.37499 25.7812 9.37499H34.712C34.4977 8.97921 34.2219 8.61569 33.8905 8.30218L26.3574 1.17546C26.0651 0.898896 25.7395 0.668193 25.3906 0.486084V8.98437Z" fill="url(#paint0_linear_6218_342)"/>
<path d="M25.7812 11.7188C24.2735 11.7188 23.0469 10.4921 23.0469 8.98438V0H9.0625C6.6932 0 4.76562 1.92758 4.76562 4.29688V35.7031C4.76562 38.0724 6.6932 40 9.0625 40H30.9375C33.3068 40 35.2344 38.0724 35.2344 35.7031V11.7188H25.7812ZM17.6562 8.20312C18.3034 8.20312 18.8281 8.72781 18.8281 9.375C18.8281 10.0222 18.3034 10.5469 17.6562 10.5469H15.3125V12.8906C15.3125 13.5378 14.7878 14.0625 14.1406 14.0625C13.4934 14.0625 12.9688 13.5378 12.9688 12.8906V10.5469H10.625C9.97781 10.5469 9.45312 10.0222 9.45312 9.375C9.45312 8.72781 9.97781 8.20312 10.625 8.20312H12.9688V5.85938C12.9688 5.21219 13.4934 4.6875 14.1406 4.6875C14.7878 4.6875 15.3125 5.21219 15.3125 5.85938V8.20312H17.6562ZM11.1719 26.5625C10.5247 26.5625 10 26.0378 10 25.3906C10 24.7434 10.5247 24.2188 11.1719 24.2188H28.3594C29.0066 24.2188 29.5312 24.7434 29.5312 25.3906C29.5312 26.0378 29.0066 26.5625 28.3594 26.5625H11.1719ZM18.025 31.6406C18.025 32.2878 17.5003 32.8125 16.8531 32.8125H11.1719C10.5247 32.8125 10 32.2878 10 31.6406C10 30.9934 10.5247 30.4688 11.1719 30.4688H16.8531C17.5003 30.4688 18.025 30.9934 18.025 31.6406ZM28.3594 17.9688C29.0066 17.9688 29.5312 18.4934 29.5312 19.1406C29.5312 19.7878 29.0066 20.3125 28.3594 20.3125H11.1719C10.5247 20.3125 10 19.7878 10 19.1406C10 18.4934 10.5247 17.9688 11.1719 17.9688H28.3594Z" fill="url(#paint1_linear_6218_342)"/>
<defs>
<linearGradient id="paint0_linear_6218_342" x1="30.0513" y1="-0.402807" x2="30.0513" y2="10.2639" gradientUnits="userSpaceOnUse">
<stop stop-color="#1D95D2"/>
<stop offset="1" stop-color="#47B43A"/>
</linearGradient>
<linearGradient id="paint1_linear_6218_342" x1="20" y1="-4" x2="20" y2="44" gradientUnits="userSpaceOnUse">
<stop stop-color="#1D95D2"/>
<stop offset="1" stop-color="#47B43A"/>
</linearGradient>
</defs>
</svg>
